<svg width="24" height="24" viewBox="0 0 24 24" fill="none" xmlns="http://www.w3.org/2000/svg">
<path d="M11.7195 0.569824C5.24784 0.569824 0 5.81675 0 12.2893C0 17.4674 3.35799 21.8604 8.01455 23.41C8.60023 23.5185 8.81531 23.1558 8.81531 22.8462C8.81531 22.5668 8.80437 21.6435 8.79941 20.6643C5.53893 21.3732 4.85096 19.2815 4.85096 19.2815C4.31785 17.9269 3.54973 17.5668 3.54973 17.5668C2.48646 16.8394 3.62988 16.8543 3.62988 16.8543C4.80675 16.937 5.42643 18.062 5.42643 18.062C6.47168 19.8537 8.16805 19.3357 8.83682 19.0363C8.94197 18.2788 9.24574 17.7618 9.58086 17.4692C6.97785 17.1727 4.24138 16.1679 4.24138 11.6773C4.24138 10.3978 4.69921 9.35232 5.44895 8.53162C5.32726 8.23639 4.92614 7.04445 5.56246 5.43016C5.56246 5.43016 6.54659 5.11517 8.78617 6.63147C9.72094 6.37173 10.7235 6.24157 11.7195 6.23716C12.7155 6.24157 13.7188 6.37173 14.6554 6.63147C16.8924 5.11517 17.8751 5.43016 17.8751 5.43016C18.513 7.04445 18.1117 8.23639 17.99 8.53162C18.7414 9.35232 19.1961 10.3978 19.1961 11.6773C19.1961 16.1785 16.4545 17.1697 13.8449 17.4598C14.2652 17.8235 14.6397 18.5368 14.6397 19.6301C14.6397 21.1981 14.6261 22.4602 14.6261 22.8462C14.6261 23.1581 14.8371 23.5236 15.4312 23.4085C20.0852 21.8571 23.439 17.4657 23.439 12.2893C23.439 5.81675 18.1918 0.569824 11.7195 0.569824Z" fill="#D5F60C"/>
</svg>
